<svg width="14" height="15" viewBox="0 0 14 15" fill="none" xmlns="http://www.w3.org/2000/svg">
<path d="M11.6509 0.574951H1.94182C0.869268 0.574951 0 1.44422 0 2.51677V12.2259C0 13.2984 0.869268 14.1677 1.94182 14.1677H11.6509C12.7235 14.1677 13.5927 13.2984 13.5927 12.2259V2.51677C13.5927 1.44422 12.722 0.574951 11.6509 0.574951ZM12.1364 12.2259C12.1364 12.494 11.919 12.7113 11.6509 12.7113H1.94182C1.67373 12.7113 1.45636 12.494 1.45636 12.2259V2.51677C1.45636 2.24862 1.67373 2.03132 1.94182 2.03132H11.6509C11.919 2.03132 12.1364 2.24862 12.1364 2.51677V12.2259ZM9.1933 4.91371L5.82546 8.28458L4.37213 6.85553C4.08768 6.57108 3.62696 6.57108 3.34236 6.85553C3.05776 7.13997 3.05791 7.6007 3.34236 7.8853L5.28418 9.82712C5.45227 9.97154 5.63734 10.0413 5.82546 10.0413C6.01357 10.0413 6.19805 9.97021 6.34034 9.828L10.224 5.94436C10.5084 5.65991 10.5084 5.19918 10.224 4.91459C9.93954 4.62999 9.47851 4.63153 9.1933 4.91371Z" fill="#0D1D1C"/>
</svg>
