<svg width="18" height="15" viewBox="0 0 18 15" fill="none" xmlns="http://www.w3.org/2000/svg">
<path d="M17.3732 7.73586L14.4605 13.5613C14.2966 13.892 13.9599 14.0984 13.5654 14.0984H1.94182C0.869267 14.0984 0 13.2288 0 12.1565V2.44744C0 1.37519 0.869267 0.505615 1.94182 0.505615H5.50688C6.02176 0.505615 6.51571 0.710174 6.88011 1.07451L8.37106 2.44744H12.6218C13.6944 2.44744 14.5636 3.31701 14.5636 4.38926V5.36017H13.1073V4.38926C13.1073 4.12153 12.8895 3.9038 12.6218 3.9038H7.76727L5.84973 2.10428C5.75871 2.01235 5.63734 1.96198 5.50688 1.96198H1.94182C1.67421 1.96198 1.45636 2.17983 1.45636 2.44744V11.1856L3.61542 6.86811C3.78048 6.53739 4.11726 6.33108 4.48439 6.33108H16.5055C17.2245 6.33108 17.6948 7.0896 17.3732 7.73586Z" fill="#0D1D1C"/>
</svg>
